<?xml version="1.0" encoding="utf-8"?>
<!-- Generator: Adobe Illustrator 18.0.0, SVG Export Plug-In . SVG Version: 6.00 Build 0)  -->
<!DOCTYPE svg PUBLIC "-//W3C//DTD SVG 1.1//EN" "http://www.w3.org/Graphics/SVG/1.1/DTD/svg11.dtd">
<svg version="1.1" id="Camada_1" xmlns="http://www.w3.org/2000/svg" xmlns:xlink="http://www.w3.org/1999/xlink" x="0px" y="0px"
	 viewBox="0 0 45.6 43.3" enable-background="new 0 0 45.6 43.3" xml:space="preserve">
<path fill="#047EAE" d="M36.5,43.3H9c-4.9,0-8.8-3.9-8.8-8.8V9.1c0-4.9,3.9-8.8,8.8-8.8h27.4c4.9,0,8.8,3.9,8.8,8.8v25.3
	C45.3,39.3,41.3,43.3,36.5,43.3z"/>
<path fill="#FFFFFF" d="M16.1,18.6c-0.1,0.2-0.2,0.3-0.2,0.4c-0.2,0.4-0.1,0.9,0.1,1.4c0.3,0.5,0.5,0.8,0.7,1c0.3,0.3,0.6,0.7,1,1
	l6.6,5.1c0.4,0.3,0.8,0.5,1.2,0.7c0.1,0,0.2,0.1,0.4,0.1c0.2,0.1,0.6,0.2,1.1,0.3c0.5,0.1,0.9-0.1,1.3-0.7l7.3,5.6
	c-0.5,0.4-1,0.7-1.6,0.8c-0.6,0.2-1.5,0.3-2.5,0.3c-1,0.1-1.9,0-2.7-0.1c-0.8-0.1-1.6-0.3-2.3-0.6c-1.5-0.6-3.1-1.4-4.6-2.2
	c-1.5-0.8-3-1.8-4.5-2.9c-2-1.5-3.7-3-5-4.5c-1.3-1.4-2.2-2.8-2.8-4.1C8.3,17.3,8,14.8,8.8,13L16.1,18.6z M29.9,26
	c0.2-0.3,0.6-0.4,1.1-0.2c0.2,0.1,0.4,0.2,0.5,0.3l5.3,4.1c0.5,0.3,0.7,0.6,0.7,0.8c0,0.2-0.1,0.4-0.2,0.8l-1,1.2l-7.3-5.6L29.9,26z
	 M10.5,10.8c0.1-0.2,0.3-0.2,0.5-0.2c0.1,0,0.2,0,0.4,0.1c0.2,0.1,0.3,0.1,0.3,0.2l5.7,4.4c0.3,0.2,0.4,0.5,0.5,0.7
	c0.1,0.2,0,0.4-0.1,0.6l-1,1.2l-7.4-5.6L10.5,10.8z"/>
</svg>
