<?xml version="1.0" encoding="utf-8"?>
<!-- Generator: Adobe Illustrator 18.0.0, SVG Export Plug-In . SVG Version: 6.00 Build 0)  -->
<!DOCTYPE svg PUBLIC "-//W3C//DTD SVG 1.1//EN" "http://www.w3.org/Graphics/SVG/1.1/DTD/svg11.dtd">
<svg version="1.1" id="Camada_1" xmlns="http://www.w3.org/2000/svg" xmlns:xlink="http://www.w3.org/1999/xlink" x="0px" y="0px"
	 viewBox="0 0 34.8 56.9" enable-background="new 0 0 34.8 56.9" xml:space="preserve">
<path fill="#25ABE0" d="M23.5,50.4c-0.4,0.6-1,0.9-1.7,1l-8.7,0.7c-0.4,0.1-0.9,0-1.3-0.1c-0.5-0.1-0.9-0.3-1.3-0.5
	c0,0-0.1-0.1-0.2-0.2c-0.1-0.1-0.3-0.2-0.5-0.4c-0.5-0.4-1.1-1.1-2-2.1c-0.9-1-1.8-2.4-2.8-4.3c-1-1.8-1.9-4.1-2.7-6.9
	c-0.8-2.8-1.4-6.1-1.7-10c-0.3-3-0.4-5.8-0.2-8.2c0.2-2.4,0.4-4.5,0.8-6.4c0.4-1.8,0.9-3.4,1.4-4.7c0.5-1.3,1.1-2.4,1.6-3.2
	c0.5-0.9,1-1.5,1.3-1.9s0.6-0.6,0.6-0.7c0.3-0.3,0.7-0.5,1.2-0.7c0.5-0.2,0.9-0.3,1.3-0.3l8.7-0.8c0.6-0.1,1.1,0.1,1.6,0.5
	c0.3,0.3,0.5,0.6,0.6,1c0.1,0.4,0.1,0.8,0.1,1.2l-2.3,10.5c-0.1,0.6-0.4,1-0.9,1.4c-0.5,0.4-1,0.6-1.6,0.6l-3.2,0.3
	c-0.1,0-0.2,0.1-0.3,0.1c-0.1,0.1-0.2,0.2-0.3,0.2c-0.3,0.6-0.6,1.3-0.8,2.3c-0.2,0.8-0.3,1.9-0.4,3.2c-0.1,1.3,0,3,0.2,5
	c0.2,2,0.4,3.6,0.7,4.9c0.3,1.3,0.6,2.3,1,3.1c0.3,0.8,0.6,1.3,0.9,1.6l0.4,0.5c0,0,0.1,0.1,0.3,0.1c0.1,0.1,0.2,0.1,0.3,0.1
	l3.8-0.4c0.7,0,1.4,0.2,2,0.7c0.4,0.3,0.7,0.7,0.8,1l0,0l3.5,9.8C23.8,49.2,23.8,49.8,23.5,50.4z"/>
<path fill="none" stroke="#25ABE0" stroke-miterlimit="10" d="M13.4,55.1l1.6-1.4c1.3-1.1,2.4-2.7,3.9-1.2c1.2,1.2,2.1,2,2.8,2.6
	c1,0.9,4.1,1.4,5.3,0.9l7.6-4.8"/>
</svg>
