<?xml version="1.0" encoding="utf-8"?>
<!-- Generator: Adobe Illustrator 18.0.0, SVG Export Plug-In . SVG Version: 6.00 Build 0)  -->
<!DOCTYPE svg PUBLIC "-//W3C//DTD SVG 1.1//EN" "http://www.w3.org/Graphics/SVG/1.1/DTD/svg11.dtd">
<svg version="1.1" id="Camada_1" xmlns="http://www.w3.org/2000/svg" xmlns:xlink="http://www.w3.org/1999/xlink" x="0px" y="0px"
	 viewBox="0 0 38.5 55" enable-background="new 0 0 38.5 55" xml:space="preserve">
<path fill="#25ABE0" d="M18.5,0C8.3,0,0,8.2,0,18.2c0,4,2.6,10.6,8,20.1c3.8,6.7,7.6,12.3,7.7,12.6l2.8,4.1l2.7-4.1
	c0.2-0.2,3.9-5.8,7.7-12.6c5.4-9.5,8-16.1,8-20.1C37,8.2,28.7,0,18.5,0z M18.5,27.5c-5.3,0-9.6-4.2-9.6-9.4c0-5.2,4.3-9.4,9.6-9.4
	c5.3,0,9.6,4.2,9.6,9.4C28.1,23.3,23.8,27.5,18.5,27.5z"/>
</svg>
