<?xml version="1.0" encoding="utf-8"?>
<!-- Generator: Adobe Illustrator 18.0.0, SVG Export Plug-In . SVG Version: 6.00 Build 0)  -->
<!DOCTYPE svg PUBLIC "-//W3C//DTD SVG 1.1//EN" "http://www.w3.org/Graphics/SVG/1.1/DTD/svg11.dtd">
<svg version="1.1" id="Camada_1" xmlns="http://www.w3.org/2000/svg" xmlns:xlink="http://www.w3.org/1999/xlink" x="0px" y="0px"
	 viewBox="0 0 37 36" enable-background="new 0 0 37 36" xml:space="preserve">
<path fill="#FFFFFF" d="M2.4,13.1c0.2,0.7,0.5,1.3,0.8,1.9l-1,1.2c-0.3,0.4-0.3,1,0.1,1.3L4,19.2c0.4,0.4,0.9,0.4,1.3,0.1l1.2-0.9
	c0.6,0.4,1.3,0.6,2,0.8l0.2,1.5c0.1,0.5,0.5,0.9,1,0.9h2.4c0.5,0,0.9-0.4,1-0.9l0.2-1.5c0.7-0.2,1.5-0.5,2.1-0.8l1.2,0.9
	c0.4,0.3,1,0.3,1.3-0.1l1.7-1.6c0.4-0.4,0.4-0.9,0.1-1.3l-0.9-1.1c0.4-0.6,0.7-1.3,0.9-2.1l1.4-0.2c0.5-0.1,0.9-0.5,0.9-1V9.6
	c0-0.5-0.4-0.9-0.9-1l-1.4-0.2c-0.2-0.7-0.5-1.4-0.8-2l0.9-1.1c0.3-0.4,0.3-1-0.1-1.3l-1.7-1.6C17.6,2,17,2,16.6,2.3l-1.1,0.8
	c-0.7-0.4-1.4-0.7-2.2-0.9l-0.2-1.3c-0.1-0.5-0.5-0.9-1-0.9H9.8c-0.5,0-0.9,0.4-1,0.9L8.7,2.2C7.9,2.4,7.1,2.7,6.4,3.1L5.3,2.3
	C4.9,2,4.4,2,4,2.4L2.3,4C2,4.4,1.9,4.9,2.3,5.3l0.9,1.1C2.8,7.1,2.5,7.8,2.3,8.5L0.9,8.7C0.4,8.7,0,9.2,0,9.7V12
	c0,0.5,0.4,0.9,0.9,1L2.4,13.1z M11,6.8c2.2,0,3.9,1.7,3.9,3.9c0,2.1-1.8,3.9-3.9,3.9s-3.9-1.7-3.9-3.9C7.1,8.6,8.9,6.8,11,6.8z"/>
<path fill="#FFFFFF" d="M34.4,13.7l-1.3-1c-0.4-0.3-1-0.3-1.3,0l-0.7,0.6c-0.6-0.3-1.2-0.5-1.8-0.6l-0.2-0.9
	C29,11.3,28.6,11,28.1,11l-1.6,0.1c-0.5,0-0.9,0.4-0.9,0.9l0,1c-0.6,0.2-1.2,0.5-1.8,0.9l-0.8-0.5c-0.4-0.3-1-0.2-1.3,0.2l-1.1,1.2
	c-0.3,0.4-0.3,0.9,0,1.3l0.7,0.8c-0.3,0.6-0.4,1.1-0.5,1.7l-1,0.2c-0.5,0.1-0.8,0.5-0.8,1l0.1,1.6c0,0.5,0.5,0.9,1,0.9l1.1,0
	c0.2,0.5,0.5,1,0.8,1.5l-0.6,0.9c-0.3,0.4-0.2,1,0.2,1.3l1.3,1c0.4,0.3,1,0.3,1.3,0l0.8-0.8c0.5,0.2,1.1,0.4,1.7,0.5l0.2,1.1
	c0.1,0.5,0.6,0.8,1.1,0.8l1.6-0.1c0.5,0,0.9-0.4,0.9-0.9l0-1.1c0.6-0.2,1.2-0.5,1.7-0.8l0.9,0.6c0.4,0.3,1,0.2,1.3-0.2l1.1-1.2
	c0.3-0.4,0.3-0.9,0-1.3l-0.7-0.8c0.3-0.6,0.5-1.1,0.6-1.7l1-0.2c0.5-0.1,0.8-0.5,0.8-1l-0.1-1.6c0-0.5-0.5-0.9-1-0.9l-1,0
	c-0.2-0.6-0.5-1.1-0.8-1.6l0.5-0.8C34.9,14.6,34.8,14,34.4,13.7z M28.3,23c-1.8,0.1-3.3-1.1-3.5-2.9c-0.2-1.7,1.2-3.3,2.9-3.4
	c1.8-0.1,3.3,1.1,3.5,2.9C31.4,21.3,30.1,22.8,28.3,23z"/>
<path fill="#FFFFFF" d="M8.1,27.3c-0.5,0.1-0.9,0.5-0.9,1l0,1c0,0.5,0.4,0.9,0.9,1l0.7,0.1c0.1,0.4,0.3,0.9,0.5,1.3l-0.5,0.6
	c-0.3,0.4-0.3,0.9,0.1,1.3l0.7,0.7c0.4,0.4,0.9,0.4,1.3,0.1l0.6-0.4c0.4,0.2,0.9,0.4,1.3,0.6l0.1,0.7c0.1,0.5,0.5,0.9,1,0.9l1,0
	c0.5,0,0.9-0.4,1-0.9l0.1-0.7c0.5-0.1,1-0.3,1.4-0.5l0.6,0.4c0.4,0.3,1,0.3,1.3-0.1l0.7-0.7c0.4-0.3,0.4-0.9,0.1-1.3l-0.4-0.5
	c0.3-0.4,0.5-0.9,0.6-1.4l0.7-0.1c0.5-0.1,0.9-0.5,0.9-1l0-1c0-0.5-0.4-0.9-0.9-1l-0.6-0.1c-0.1-0.5-0.3-0.9-0.5-1.4l0.4-0.5
	c0.3-0.4,0.3-0.9-0.1-1.3l-0.7-0.7c-0.4-0.4-0.9-0.4-1.3-0.1l-0.5,0.4c-0.5-0.3-0.9-0.5-1.4-0.6l-0.1-0.6c-0.1-0.5-0.5-0.9-1-0.9
	l-1,0c-0.5,0-0.9,0.4-1,0.9l-0.1,0.6c-0.5,0.1-1,0.3-1.5,0.6l-0.5-0.4c-0.4-0.3-1-0.3-1.3,0.1L9.1,24c-0.4,0.3-0.4,0.9-0.1,1.3
	l0.4,0.5c-0.2,0.4-0.4,0.9-0.6,1.4L8.1,27.3z M14.6,26.2c1.4,0,2.6,1.2,2.6,2.6c0,1.4-1.2,2.6-2.6,2.5c-1.4,0-2.6-1.2-2.6-2.6
	C12,27.3,13.2,26.2,14.6,26.2z"/>
</svg>
