<?xml version="1.0" encoding="utf-8"?>
<!-- Generator: Adobe Illustrator 18.0.0, SVG Export Plug-In . SVG Version: 6.00 Build 0)  -->
<!DOCTYPE svg PUBLIC "-//W3C//DTD SVG 1.1//EN" "http://www.w3.org/Graphics/SVG/1.1/DTD/svg11.dtd">
<svg version="1.1" id="Camada_1" xmlns="http://www.w3.org/2000/svg" xmlns:xlink="http://www.w3.org/1999/xlink" x="0px" y="0px"
	 viewBox="0 0 231.1 213.9" enable-background="new 0 0 231.1 213.9" xml:space="preserve">
<g>
	<path fill-rule="evenodd" clip-rule="evenodd" d="M13.5,156.3v-18.1c0-0.5-0.4-1-1-1H7.8c-0.5,0-1-0.4-1-1v-3.8c0-0.5,0.4-1,1-1
		h18.3c0.5,0,1,0.4,1,1v3.8c0,0.5-0.4,1-1,1h-4.7c-0.5,0-1,0.4-1,1v18.1c0,0.5-0.4,1-1,1h-5C13.9,157.2,13.5,156.8,13.5,156.3
		L13.5,156.3z M38.7,143.9h2.9c1.2,0,1.9-0.2,2.4-0.6c0.4-0.4,0.6-1.1,0.6-2.2v-1c0-1.1-0.2-1.9-0.6-2.3c-0.4-0.4-1.2-0.6-2.4-0.6
		h-2.9c-0.5,0-1,0.4-1,1v4.8C37.7,143.4,38.2,143.9,38.7,143.9L38.7,143.9z M30.8,156.3v-23.9c0-0.5,0.4-1,1-1h9.4
		c4,0,6.7,0.5,8.2,1.6c1.5,1,2.2,2.9,2.2,5.5v2.1c0,1.7-0.4,3.1-1.3,4.1c-0.3,0.4-0.7,0.7-1.1,1c-0.3,0.2-0.5,0.5-0.5,0.9
		c0,0.4,0.2,0.7,0.5,0.8c0.5,0.3,0.8,0.5,1.2,0.9c0.8,0.9,1.2,2.1,1.2,3.7v4.4c0,0.5-0.4,1-1,1h-5.1c-0.5,0-1-0.4-1-1v-3.7
		c0-1.1-0.2-1.9-0.6-2.3c-0.4-0.4-1.2-0.6-2.4-0.6h-2.9c-0.5,0-1,0.4-1,1v5.6c0,0.5-0.4,1-1,1h-5C31.2,157.2,30.8,156.8,30.8,156.3
		L30.8,156.3z M56.5,156.3v-23.9c0-0.5,0.4-1,1-1h5c0.5,0,1,0.4,1,1v23.9c0,0.5-0.4,1-1,1h-5C57,157.2,56.5,156.8,56.5,156.3
		L56.5,156.3z M78.1,147.5h3.2c0.3,0,0.6-0.1,0.8-0.4c0.2-0.2,0.3-0.5,0.2-0.8l-2.3-9.5h-0.5l-2.3,9.5c-0.1,0.3,0,0.6,0.2,0.8
		C77.6,147.3,77.8,147.5,78.1,147.5L78.1,147.5z M67.4,156l6.9-23.9c0.1-0.4,0.5-0.7,0.9-0.7h9.2c0.4,0,0.8,0.3,0.9,0.7L92,156
		c0.1,0.3,0,0.6-0.2,0.9c-0.2,0.3-0.5,0.4-0.8,0.4h-5.4c-0.5,0-0.8-0.3-0.9-0.7l-0.8-3c-0.1-0.4-0.5-0.7-0.9-0.7h-6.6
		c-0.5,0-0.8,0.3-0.9,0.7l-0.8,3.1c-0.1,0.4-0.5,0.7-0.9,0.7h-5.4c-0.3,0-0.6-0.1-0.8-0.4C67.3,156.6,67.3,156.3,67.4,156L67.4,156z
		 M75,127.8l2.4-4.5c0.2-0.3,0.5-0.5,0.9-0.5h3c0.4,0,0.7,0.2,0.9,0.5l2.4,4.5c0.2,0.3,0.2,0.7,0,1c-0.2,0.3-0.5,0.5-0.8,0.5h-0.4
		c-0.3,0-0.6-0.1-0.8-0.4l-2-2.5c-0.2-0.2-0.5-0.4-0.8-0.4c-0.3,0-0.6,0.1-0.8,0.4l-2,2.5c-0.2,0.2-0.5,0.4-0.8,0.4h-0.3
		c-0.4,0-0.7-0.2-0.8-0.5C74.8,128.5,74.8,128.1,75,127.8L75,127.8z M95.6,156.3v-23.9c0-0.5,0.4-1,1-1h8.7c0.4,0,0.7,0.2,0.9,0.6
		l5.9,14.1c0.2,0.4,0.6,0.7,1.1,0.6c0.5-0.1,0.8-0.5,0.8-1v-13.3c0-0.5,0.4-1,1-1h4.7c0.5,0,1,0.4,1,1v23.9c0,0.5-0.4,1-1,1h-8.7
		c-0.4,0-0.7-0.2-0.9-0.6l-5.9-14.2c-0.2-0.4-0.6-0.7-1.1-0.6c-0.5,0.1-0.8,0.5-0.8,1v13.5c0,0.5-0.4,1-1,1h-4.7
		C96.1,157.2,95.6,156.8,95.6,156.3L95.6,156.3z M147.2,139.5h-5.1c-0.4,0-0.8-0.3-0.9-0.7c-0.1-0.5-0.4-0.8-0.8-1.1
		c-0.6-0.4-1.5-0.5-2.8-0.5h-1.7c-1.6,0-2.6,0.3-3.1,0.9c-0.5,0.6-0.8,2-0.8,4.2v4.3c0,2.2,0.3,3.6,0.8,4.2c0.5,0.6,1.6,0.9,3.1,0.9
		h1.9c1.4,0,2.3-0.2,2.9-0.6c0.5-0.4,0.8-1,0.8-2v0c0-0.5-0.4-1-1-1h-2c-0.5,0-1-0.4-1-1v-2.9c0-0.5,0.4-1,1-1h8.8c0.5,0,1,0.4,1,1
		v3.4c0,3.5-0.8,6-2.3,7.6c-1.5,1.6-4,2.4-7.3,2.4h-4.7c-2.9,0-5.1-0.9-6.6-2.8c-1.5-1.8-2.3-4.6-2.3-8.2v-3.9c0-4,0.8-7,2.4-8.8
		c1.6-1.9,4.1-2.8,7.5-2.8h3.8c2.8,0,5.1,0.7,6.8,2.1c1.8,1.4,2.7,3.1,2.7,5.2v0.1C148.2,139,147.7,139.5,147.2,139.5L147.2,139.5z
		 M153.1,131.4h4.9c0.5,0,1,0.4,1,1v14.1c0,2.1,0.3,3.5,0.8,4.1c0.5,0.6,1.6,0.9,3.2,0.9h1.3c1.6,0,2.7-0.3,3.2-0.9
		c0.5-0.6,0.8-2,0.8-4.1v-14.1c0-0.5,0.4-1,1-1h4.9c0.5,0,1,0.4,1,1V147c0,2.3-0.1,4-0.4,5.1c-0.3,1.1-0.8,2-1.4,2.8
		c-0.8,0.9-1.8,1.6-3,2c-1.2,0.4-2.8,0.6-4.9,0.6H162c-2.1,0-3.7-0.2-4.9-0.6c-1.2-0.4-2.2-1.1-3-2c-0.7-0.8-1.2-1.8-1.5-2.9
		c-0.3-1.1-0.4-2.8-0.4-5.1v-14.6C152.2,131.8,152.6,131.4,153.1,131.4L153.1,131.4z M180.2,156.3v-23.9c0-0.5,0.4-1,1-1h5
		c0.5,0,1,0.4,1,1v17.9c0,0.5,0.4,1,1,1h9.6c0.5,0,1,0.4,1,1v4.1c0,0.5-0.4,1-1,1h-16.6C180.6,157.2,180.2,156.8,180.2,156.3
		L180.2,156.3z M208.1,142.2v4.3c0,2.2,0.2,3.6,0.7,4.2c0.5,0.6,1.5,0.9,3.1,0.9h1.3c1.6,0,2.6-0.3,3.1-0.9c0.5-0.6,0.8-2,0.8-4.1
		v-4.3c0-2.2-0.3-3.6-0.8-4.2s-1.6-0.9-3.1-0.9H212c-1.6,0-2.6,0.3-3.1,0.9C208.4,138.6,208.1,140,208.1,142.2L208.1,142.2z
		 M201,141.6c0-3.9,0.7-6.7,2.2-8.2c1.5-1.6,4-2.3,7.7-2.3h3.4c3.7,0,6.2,0.8,7.7,2.3c1.5,1.6,2.2,4.3,2.2,8.2v5.4
		c0,3.9-0.7,6.6-2.2,8.2c-1.5,1.6-4,2.3-7.7,2.3h-3.4c-3.7,0-6.2-0.8-7.7-2.3c-1.5-1.6-2.2-4.3-2.2-8.2V141.6z"/>
	<g>
		<path d="M44.1,199v3.4h4.1v1.4h-4.1v4.4h5.6v1.5h-7.3v-12.3h7.4v1.5H44.1z"/>
		<path d="M60.9,209.8l-1.5-7.9l-2.7,8.1h-0.4l-2.8-8.1l-1.4,7.9h-1.6l2.3-12.3h0.8l2.9,9l2.7-9H60l2.5,12.3H60.9z"/>
		<path d="M73.2,199v10.8h-1.7V199h-3.9v-1.5h9.7v1.5H73.2z"/>
		<path d="M77.2,203.5c0-1.8,0.4-3.3,1.3-4.5c0.9-1.2,2.1-1.8,3.6-1.8c1.7,0,3,0.6,3.9,1.7c0.9,1.1,1.4,2.6,1.4,4.6
			c0,2-0.5,3.6-1.4,4.8c-0.9,1.1-2.2,1.7-3.9,1.7c-1.6,0-2.8-0.6-3.6-1.8C77.6,207,77.2,205.4,77.2,203.5z M79,203.5
			c0,1.4,0.3,2.6,0.8,3.5c0.6,0.9,1.3,1.4,2.4,1.4c1.1,0,2-0.4,2.6-1.3c0.6-0.9,0.9-2.1,0.9-3.7c0-3.2-1.2-4.8-3.5-4.8
			c-1,0-1.8,0.4-2.4,1.3S79,202,79,203.5z"/>
		<path d="M96.2,209.8l-3.3-5.3c-0.4,0-1,0-1.8-0.1v5.4h-1.7v-12.3c0.1,0,0.5,0,1.3-0.1c0.8,0,1.4-0.1,1.8-0.1c3,0,4.4,1.2,4.4,3.5
			c0,0.8-0.2,1.5-0.7,2.1c-0.5,0.6-1,1-1.7,1.2l3.6,5.7H96.2z M91.2,199v4c0.4,0.1,0.8,0.1,1.2,0.1c1,0,1.7-0.2,2.2-0.5
			s0.7-0.9,0.7-1.7c0-0.7-0.2-1.2-0.7-1.5c-0.5-0.3-1.3-0.5-2.3-0.5C92,198.9,91.7,198.9,91.2,199z"/>
		<path d="M107.4,210l-6.4-9v8.8h-1.6v-12.3h0.7l6.2,8.5v-8.5h1.6V210H107.4z"/>
		<path d="M109.8,203.5c0-1.8,0.4-3.3,1.3-4.5c0.9-1.2,2.1-1.8,3.6-1.8c1.7,0,3,0.6,3.9,1.7c0.9,1.1,1.4,2.6,1.4,4.6
			c0,2-0.5,3.6-1.4,4.8c-0.9,1.1-2.2,1.7-3.9,1.7c-1.6,0-2.8-0.6-3.6-1.8C110.3,207,109.8,205.4,109.8,203.5z M111.6,203.5
			c0,1.4,0.3,2.6,0.8,3.5c0.6,0.9,1.3,1.4,2.4,1.4c1.1,0,2-0.4,2.6-1.3c0.6-0.9,0.9-2.1,0.9-3.7c0-3.2-1.2-4.8-3.5-4.8
			c-1,0-1.8,0.4-2.4,1.3S111.6,202,111.6,203.5z"/>
		<path d="M128.9,199v3.4h4.1v1.4h-4.1v4.4h5.6v1.5h-7.3v-12.3h7.4v1.5H128.9z"/>
		<path d="M141.1,209.2l0.6-1.5c0.3,0.2,0.7,0.4,1.2,0.6c0.5,0.2,0.9,0.2,1.3,0.2c0.7,0,1.2-0.2,1.6-0.5c0.4-0.4,0.6-0.8,0.6-1.4
			c0-0.4-0.1-0.8-0.3-1.2c-0.2-0.4-0.8-0.7-1.7-1.2l-1-0.5c-0.8-0.4-1.4-0.9-1.8-1.4c-0.3-0.5-0.5-1.2-0.5-1.9c0-0.9,0.3-1.7,1-2.3
			c0.7-0.6,1.5-0.9,2.5-0.9c1.4,0,2.3,0.2,2.8,0.7l-0.5,1.5c-0.2-0.2-0.6-0.3-1-0.5s-0.9-0.2-1.3-0.2c-0.6,0-1,0.2-1.4,0.5
			s-0.5,0.7-0.5,1.3c0,0.3,0.1,0.6,0.2,0.9c0.1,0.3,0.3,0.5,0.5,0.6s0.6,0.4,1.3,0.7l1,0.5c0.8,0.4,1.4,0.9,1.8,1.4
			c0.3,0.6,0.5,1.3,0.5,2.1c0,0.9-0.4,1.7-1.1,2.4c-0.7,0.6-1.7,1-3,1C142.8,210,141.9,209.7,141.1,209.2z"/>
		<path d="M149.3,203.5c0-1.8,0.4-3.3,1.3-4.5s2.1-1.8,3.6-1.8c1.7,0,3,0.6,3.9,1.7c0.9,1.1,1.4,2.6,1.4,4.6c0,2-0.5,3.6-1.4,4.8
			c-0.9,1.1-2.2,1.7-3.9,1.7c-1.6,0-2.8-0.6-3.6-1.8C149.8,207,149.3,205.4,149.3,203.5z M151.1,203.5c0,1.4,0.3,2.6,0.8,3.5
			c0.6,0.9,1.3,1.4,2.4,1.4c1.1,0,2-0.4,2.6-1.3c0.6-0.9,0.9-2.1,0.9-3.7c0-3.2-1.2-4.8-3.5-4.8c-1,0-1.8,0.4-2.4,1.3
			S151.1,202,151.1,203.5z"/>
		<path d="M161.5,209.8v-12.3h1.7v10.8h5.6v1.5H161.5z"/>
		<path d="M172.7,209.8h-2.5v-12.3c1.6-0.1,2.6-0.1,3-0.1c1.7,0,3.1,0.5,4.1,1.6s1.5,2.4,1.5,4.2
			C178.9,207.6,176.8,209.8,172.7,209.8z M171.9,199v9.2c0.4,0.1,0.8,0.1,1.4,0.1c1.2,0,2.1-0.4,2.8-1.3c0.7-0.9,1-2.1,1-3.7
			c0-2.9-1.3-4.4-3.9-4.4C173,198.9,172.6,198.9,171.9,199z"/>
		<path d="M187.8,209.8l-0.8-2.6h-4.6l-0.9,2.6h-1.9l5-12.5h0.4l4.6,12.5H187.8z M184.7,200.5l-1.9,5.4h3.7L184.7,200.5z"/>
	</g>
	<path fill-rule="evenodd" clip-rule="evenodd" fill="#006D9D" d="M11,188.1h209.1c2.7,0,4.9-2.2,4.9-4.9v-15c0-2.7-2.2-4.9-4.9-4.9
		H11c-2.7,0-4.9,2.2-4.9,4.9v15C6.1,185.9,8.3,188.1,11,188.1z"/>
	<g>
		<path fill="#FFFFFF" d="M14.1,182.1v-12.3h2.2v12.3H14.1z"/>
		<path fill="#FFFFFF" d="M28.5,182.2l-6-7.8v7.6h-2.1v-12.3h1.1l5.8,7.4v-7.4h2.1v12.5H28.5z"/>
		<path fill="#FFFFFF" d="M36.2,182.1h-2.7v-12.3c1.7-0.1,2.8-0.1,3.3-0.1c1.8,0,3.2,0.5,4.3,1.6c1.1,1.1,1.6,2.4,1.6,4.2
			C42.6,179.8,40.5,182.1,36.2,182.1z M35.7,171.6v8.4c0.4,0,0.7,0.1,1.1,0.1c1.1,0,2-0.4,2.6-1.2s0.9-1.9,0.9-3.4
			c0-2.6-1.2-4-3.7-4C36.4,171.6,36.1,171.6,35.7,171.6z"/>
		<path fill="#FFFFFF" d="M46.1,169.7h2.2v8.4c0,0.7,0.2,1.2,0.6,1.6s1,0.6,1.7,0.6c0.8,0,1.4-0.2,1.8-0.6c0.4-0.4,0.7-1,0.7-1.7
			v-8.3h2.2v8.5c0,1.3-0.4,2.3-1.3,3s-2,1.1-3.4,1.1c-1.4,0-2.5-0.3-3.3-1.1s-1.2-1.7-1.2-3V169.7z M53.1,166.3l-1.9,2.5h-1.6
			l1.4-2.5H53.1z"/>
		<path fill="#FFFFFF" d="M58.8,181.4l0.8-2c0.9,0.6,1.7,0.9,2.5,0.9c1.3,0,1.9-0.4,1.9-1.3c0-0.4-0.2-0.8-0.5-1.2
			c-0.3-0.4-0.9-0.8-1.9-1.3c-0.9-0.5-1.6-0.9-1.9-1.2c-0.3-0.3-0.6-0.7-0.8-1.1s-0.3-0.9-0.3-1.4c0-1,0.3-1.7,1-2.4
			s1.6-0.9,2.7-0.9c1.4,0,2.5,0.3,3.1,0.8l-0.7,1.9c-0.8-0.5-1.6-0.8-2.4-0.8c-0.5,0-0.9,0.1-1.2,0.4c-0.3,0.3-0.4,0.6-0.4,1
			c0,0.7,0.8,1.4,2.3,2.2c0.8,0.4,1.4,0.8,1.8,1.1c0.4,0.3,0.6,0.7,0.8,1.2c0.2,0.5,0.3,1,0.3,1.5c0,1-0.4,1.8-1.2,2.5
			c-0.8,0.6-1.8,1-3.2,1C60.7,182.3,59.7,182,58.8,181.4z"/>
		<path fill="#FFFFFF" d="M74.7,171.7v10.4h-2.2v-10.4h-3.9v-1.9h10.2v1.9H74.7z"/>
		<path fill="#FFFFFF" d="M88.8,182.1l-3.3-5.1c-0.3,0-0.8,0-1.4-0.1v5.1h-2.3v-12.3c0.1,0,0.6,0,1.4-0.1c0.8,0,1.5-0.1,2-0.1
			c3.1,0,4.7,1.2,4.7,3.6c0,0.7-0.2,1.4-0.6,2c-0.4,0.6-1,1-1.6,1.3l3.6,5.6H88.8z M84.1,171.6v3.4c0.4,0,0.7,0.1,0.9,0.1
			c0.9,0,1.6-0.1,2-0.4s0.6-0.8,0.6-1.5c0-0.6-0.2-1-0.7-1.3c-0.5-0.2-1.2-0.4-2.1-0.4C84.6,171.6,84.3,171.6,84.1,171.6z"/>
		<path fill="#FFFFFF" d="M93.9,182.1v-12.3h2.2v12.3H93.9z"/>
		<path fill="#FFFFFF" d="M107.4,182.1l-0.9-2.5h-4.2l-0.9,2.5H99l4.9-12.5h1l5,12.5H107.4z M104.4,173.3l-1.5,4.6h3L104.4,173.3z"
			/>
		<path fill="#FFFFFF" d="M119.1,171.7v2.9h4.1v1.9h-4.1v3.7h5.6v1.9H117v-12.3h7.9v1.9H119.1z"/>
		<path fill="#FFFFFF" d="M132.9,181.4l0.8-2c0.9,0.6,1.7,0.9,2.5,0.9c1.3,0,1.9-0.4,1.9-1.3c0-0.4-0.2-0.8-0.5-1.2
			c-0.3-0.4-0.9-0.8-1.9-1.3c-0.9-0.5-1.6-0.9-1.9-1.2s-0.6-0.7-0.8-1.1s-0.3-0.9-0.3-1.4c0-1,0.3-1.7,1-2.4s1.6-0.9,2.7-0.9
			c1.4,0,2.5,0.3,3.1,0.8l-0.7,1.9c-0.8-0.5-1.6-0.8-2.4-0.8c-0.5,0-0.9,0.1-1.2,0.4c-0.3,0.3-0.4,0.6-0.4,1c0,0.7,0.8,1.4,2.3,2.2
			c0.8,0.4,1.4,0.8,1.8,1.1c0.4,0.3,0.6,0.7,0.8,1.2c0.2,0.5,0.3,1,0.3,1.5c0,1-0.4,1.8-1.2,2.5c-0.8,0.6-1.8,1-3.2,1
			C134.9,182.3,133.8,182,132.9,181.4z"/>
		<path fill="#FFFFFF" d="M146.1,171.7v2.9h4.1v1.9h-4.1v3.7h5.6v1.9h-7.8v-12.3h7.9v1.9H146.1z"/>
		<path fill="#FFFFFF" d="M162.2,182.1l-3.3-5.1c-0.3,0-0.8,0-1.4-0.1v5.1h-2.3v-12.3c0.1,0,0.6,0,1.4-0.1c0.8,0,1.5-0.1,2-0.1
			c3.1,0,4.7,1.2,4.7,3.6c0,0.7-0.2,1.4-0.6,2c-0.4,0.6-1,1-1.6,1.3l3.6,5.6H162.2z M157.5,171.6v3.4c0.4,0,0.7,0.1,0.9,0.1
			c0.9,0,1.6-0.1,2-0.4c0.4-0.3,0.6-0.8,0.6-1.5c0-0.6-0.2-1-0.7-1.3s-1.2-0.4-2.1-0.4C158,171.6,157.8,171.6,157.5,171.6z"/>
		<path fill="#FFFFFF" d="M171.3,182.2h-1.2l-4.6-12.5h2.4l2.9,8.3l3-8.3h2.4L171.3,182.2z"/>
		<path fill="#FFFFFF" d="M179,182.1v-12.3h2.2v12.3H179z"/>
		<path fill="#FFFFFF" d="M193.8,170.4l-0.9,1.8c-0.5-0.5-1.3-0.7-2.4-0.7c-1,0-1.9,0.4-2.5,1.3c-0.7,0.9-1,2-1,3.3
			c0,1.3,0.3,2.4,0.9,3.1c0.6,0.8,1.4,1.2,2.4,1.2c1.2,0,2.1-0.4,2.7-1.2l1,1.8c-0.9,0.9-2.2,1.4-3.9,1.4s-3.1-0.6-4-1.7
			c-1-1.1-1.4-2.7-1.4-4.6c0-1.8,0.5-3.3,1.6-4.6s2.4-1.8,4.1-1.8C191.8,169.5,192.9,169.8,193.8,170.4z M188.4,185.6l-0.3-1.1
			c0.2,0.1,0.4,0.1,0.6,0.1c0.7,0,1.1-0.3,1.1-0.8c0-0.2-0.1-0.4-0.2-0.5c-0.1-0.2-0.3-0.3-0.4-0.3l0.7-0.7c1,0.2,1.5,0.8,1.5,1.7
			c0,0.5-0.2,1-0.6,1.3c-0.4,0.3-0.9,0.5-1.5,0.5C188.9,185.7,188.6,185.7,188.4,185.6z"/>
		<path fill="#FFFFFF" d="M196.8,175.8c0-1.8,0.5-3.2,1.4-4.5c1-1.2,2.2-1.8,3.9-1.8c1.8,0,3.1,0.5,4.1,1.6c0.9,1.1,1.4,2.6,1.4,4.6
			s-0.5,3.6-1.5,4.7c-1,1.2-2.4,1.8-4.2,1.8c-1.7,0-2.9-0.6-3.8-1.7S196.8,177.8,196.8,175.8z M199.1,175.8c0,1.4,0.2,2.6,0.7,3.3
			c0.5,0.8,1.2,1.2,2.1,1.2c1.1,0,1.9-0.4,2.5-1.2c0.6-0.8,0.9-1.9,0.9-3.4c0-2.9-1.1-4.3-3.2-4.3c-1,0-1.7,0.4-2.2,1.2
			C199.4,173.4,199.1,174.5,199.1,175.8z"/>
		<path fill="#FFFFFF" d="M210.5,181.4l0.8-2c0.9,0.6,1.7,0.9,2.5,0.9c1.3,0,1.9-0.4,1.9-1.3c0-0.4-0.2-0.8-0.5-1.2
			c-0.3-0.4-0.9-0.8-1.9-1.3c-0.9-0.5-1.6-0.9-1.9-1.2s-0.6-0.7-0.8-1.1s-0.3-0.9-0.3-1.4c0-1,0.3-1.7,1-2.4s1.6-0.9,2.7-0.9
			c1.4,0,2.5,0.3,3.1,0.8l-0.7,1.9c-0.8-0.5-1.6-0.8-2.4-0.8c-0.5,0-0.9,0.1-1.2,0.4c-0.3,0.3-0.4,0.6-0.4,1c0,0.7,0.8,1.4,2.3,2.2
			c0.8,0.4,1.4,0.8,1.8,1.1c0.4,0.3,0.6,0.7,0.8,1.2c0.2,0.5,0.3,1,0.3,1.5c0,1-0.4,1.8-1.2,2.5c-0.8,0.6-1.8,1-3.2,1
			C212.5,182.3,211.4,182,210.5,181.4z"/>
	</g>
	<polygon fill-rule="evenodd" clip-rule="evenodd" points="102.6,3.9 115.2,3.9 165.5,93 74.4,92.9 80.3,82.7 148,82.9 	"/>
	<polygon fill-rule="evenodd" clip-rule="evenodd" fill="#5DA9DD" points="165.5,93 159.2,103.9 56.9,102.9 102.6,24.1 108.6,34.6 
		74.4,92.8 	"/>
	<polygon fill-rule="evenodd" clip-rule="evenodd" fill="#006D9D" points="56.9,102.9 50.6,92 102.6,3.9 148.1,82.9 135.9,82.9 
		102.6,24.1 	"/>
</g>
</svg>
