<?xml version="1.0" encoding="utf-8"?>
<!-- Generator: Adobe Illustrator 18.0.0, SVG Export Plug-In . SVG Version: 6.00 Build 0)  -->
<!DOCTYPE svg PUBLIC "-//W3C//DTD SVG 1.1//EN" "http://www.w3.org/Graphics/SVG/1.1/DTD/svg11.dtd">
<svg version="1.1" id="Camada_1" xmlns="http://www.w3.org/2000/svg" xmlns:xlink="http://www.w3.org/1999/xlink" x="0px" y="0px"
	 viewBox="0 0 433.3 107" enable-background="new 0 0 433.3 107" xml:space="preserve">
<g>
	<path fill-rule="evenodd" clip-rule="evenodd" d="M141.1,54.5V29.8c0-0.7-0.6-1.3-1.3-1.3h-6.4c-0.7,0-1.3-0.6-1.3-1.3v-5.2
		c0-0.7,0.6-1.3,1.3-1.3h25c0.7,0,1.3,0.6,1.3,1.3v5.2c0,0.7-0.6,1.3-1.3,1.3H152c-0.7,0-1.3,0.6-1.3,1.3v24.7
		c0,0.7-0.6,1.3-1.3,1.3h-6.9C141.7,55.9,141.1,55.3,141.1,54.5L141.1,54.5z M175.5,37.6h4c1.6,0,2.7-0.3,3.2-0.8
		c0.6-0.5,0.9-1.6,0.9-3.1v-1.4c0-1.5-0.3-2.5-0.9-3.1c-0.6-0.6-1.6-0.8-3.2-0.8h-4c-0.7,0-1.3,0.6-1.3,1.3v6.5
		C174.2,37,174.8,37.6,175.5,37.6L175.5,37.6z M164.7,54.5V21.9c0-0.7,0.6-1.3,1.3-1.3H179c5.4,0,9.2,0.7,11.2,2.1
		c2,1.4,3,3.9,3,7.5v2.8c0,2.4-0.6,4.3-1.7,5.6c-0.4,0.5-0.9,0.9-1.5,1.3c-0.4,0.3-0.7,0.7-0.6,1.2c0,0.5,0.3,0.9,0.7,1.1
		c0.6,0.3,1.2,0.7,1.6,1.2c1.1,1.2,1.6,2.9,1.6,5.1v5.9c0,0.7-0.6,1.3-1.3,1.3h-7c-0.7,0-1.3-0.6-1.3-1.3v-5c0-1.5-0.3-2.5-0.9-3.1
		c-0.6-0.6-1.6-0.8-3.2-0.8h-3.9c-0.7,0-1.3,0.6-1.3,1.3v7.6c0,0.7-0.6,1.3-1.3,1.3h-6.8C165.3,55.9,164.7,55.3,164.7,54.5
		L164.7,54.5z M199.9,54.5V21.9c0-0.7,0.6-1.3,1.3-1.3h6.9c0.7,0,1.3,0.6,1.3,1.3v32.6c0,0.7-0.6,1.3-1.3,1.3h-6.9
		C200.4,55.9,199.9,55.3,199.9,54.5L199.9,54.5z M229.3,42.5h4.3c0.4,0,0.8-0.2,1-0.5c0.3-0.3,0.3-0.7,0.3-1.1l-3.1-13h-0.6l-3.2,13
		c-0.1,0.4,0,0.8,0.2,1.1C228.6,42.3,228.9,42.5,229.3,42.5L229.3,42.5z M214.7,54.2l9.4-32.6c0.2-0.6,0.7-1,1.3-1h12.5
		c0.6,0,1.1,0.4,1.3,1l9.2,32.6c0.1,0.4,0,0.8-0.2,1.2c-0.3,0.3-0.6,0.5-1.1,0.5h-7.3c-0.6,0-1.1-0.4-1.3-1l-1.1-4.2
		c-0.2-0.6-0.7-1-1.3-1h-9.1c-0.6,0-1.1,0.4-1.3,1l-1.1,4.2c-0.2,0.6-0.7,1-1.3,1h-7.3c-0.4,0-0.8-0.2-1.1-0.5
		C214.6,55,214.5,54.6,214.7,54.2L214.7,54.2z M225,15.7l3.2-6.1c0.2-0.4,0.7-0.7,1.2-0.7h4c0.5,0,0.9,0.3,1.2,0.7l3.2,6.1
		c0.2,0.4,0.2,0.9,0,1.3c-0.2,0.4-0.7,0.6-1.1,0.6h-0.5c-0.4,0-0.8-0.2-1-0.5l-2.7-3.4c-0.3-0.3-0.6-0.5-1-0.5c-0.4,0-0.8,0.2-1,0.5
		l-2.7,3.4c-0.3,0.3-0.6,0.5-1,0.5h-0.4c-0.5,0-0.9-0.2-1.1-0.6C224.8,16.6,224.8,16.1,225,15.7L225,15.7z M253.2,54.5V21.9
		c0-0.7,0.6-1.3,1.3-1.3h11.8c0.5,0,1,0.3,1.2,0.8l8.1,19.3c0.2,0.6,0.9,0.9,1.5,0.8c0.6-0.1,1.1-0.7,1.1-1.3V21.9
		c0-0.7,0.6-1.3,1.3-1.3h6.4c0.7,0,1.3,0.6,1.3,1.3v32.6c0,0.7-0.6,1.3-1.3,1.3h-11.8c-0.6,0-1-0.3-1.2-0.8l-8.1-19.4
		c-0.2-0.6-0.9-0.9-1.5-0.8c-0.6,0.1-1.1,0.7-1.1,1.3v18.4c0,0.7-0.6,1.3-1.3,1.3h-6.4C253.8,55.9,253.2,55.3,253.2,54.5L253.2,54.5
		z M323.6,31.6h-7c-0.6,0-1.1-0.4-1.3-1c-0.2-0.6-0.5-1.1-1.1-1.5c-0.8-0.5-2-0.7-3.8-0.7h-2.4c-2.2,0-3.6,0.4-4.3,1.2
		c-0.7,0.8-1,2.7-1,5.7v5.8c0,3,0.3,4.9,1,5.7c0.7,0.8,2.1,1.2,4.3,1.2h2.6c1.9,0,3.2-0.3,3.9-0.8c0.7-0.5,1.1-1.4,1.1-2.7v0
		c0-0.7-0.6-1.3-1.3-1.3h-2.7c-0.7,0-1.3-0.6-1.3-1.3v-3.9c0-0.7,0.6-1.3,1.3-1.3h12c0.7,0,1.3,0.6,1.3,1.3v4.7
		c0,4.8-1,8.2-3.1,10.4c-2.1,2.2-5.4,3.3-9.9,3.3h-6.4c-4,0-7-1.3-9-3.8c-2-2.5-3.1-6.2-3.1-11.2V36c0-5.5,1.1-9.5,3.2-12.1
		c2.2-2.5,5.6-3.8,10.2-3.8h5.1c3.8,0,6.9,0.9,9.3,2.8c2.4,1.9,3.6,4.3,3.6,7.1v0.2C324.9,31,324.4,31.6,323.6,31.6L323.6,31.6z
		 M331.8,20.6h6.7c0.7,0,1.3,0.6,1.3,1.3v19.2c0,2.9,0.4,4.7,1.1,5.6c0.7,0.8,2.2,1.3,4.4,1.3h1.7c2.2,0,3.7-0.4,4.4-1.3
		c0.7-0.8,1.1-2.7,1.1-5.6V21.9c0-0.7,0.6-1.3,1.3-1.3h6.7c0.7,0,1.3,0.6,1.3,1.3v20c0,3.2-0.2,5.5-0.6,7c-0.4,1.5-1,2.8-2,3.9
		c-1.1,1.3-2.5,2.2-4.1,2.7c-1.6,0.6-3.9,0.8-6.7,0.8h-4.7c-2.8,0-5-0.3-6.7-0.8c-1.6-0.5-3-1.5-4.1-2.7c-0.9-1.1-1.6-2.4-2-3.9
		c-0.4-1.5-0.6-3.8-0.6-6.9v-20C330.4,21.2,331,20.6,331.8,20.6L331.8,20.6z M368.7,54.5V21.9c0-0.7,0.6-1.3,1.3-1.3h6.9
		c0.7,0,1.3,0.6,1.3,1.3v24.4c0,0.7,0.6,1.3,1.3,1.3h13.1c0.7,0,1.3,0.6,1.3,1.3v5.5c0,0.7-0.6,1.3-1.3,1.3H370
		C369.3,55.9,368.7,55.3,368.7,54.5L368.7,54.5z M406.8,35.3v5.8c0,3,0.3,4.9,1,5.7c0.7,0.8,2.1,1.2,4.3,1.2h1.8
		c2.2,0,3.6-0.4,4.3-1.2c0.7-0.8,1-2.7,1-5.7v-5.8c0-3-0.3-4.9-1-5.7c-0.7-0.8-2.1-1.2-4.3-1.2h-1.8c-2.2,0-3.6,0.4-4.3,1.2
		C407.1,30.4,406.8,32.3,406.8,35.3L406.8,35.3z M397.1,34.6c0-5.4,1-9.1,3-11.2c2-2.1,5.5-3.2,10.5-3.2h4.6c5,0,8.5,1.1,10.5,3.2
		c2,2.1,3,5.9,3,11.2v7.3c0,5.3-1,9.1-3,11.2c-2,2.1-5.5,3.2-10.5,3.2h-4.6c-5,0-8.5-1.1-10.5-3.2c-2-2.1-3-5.9-3-11.2V34.6z"/>
	<path fill-rule="evenodd" clip-rule="evenodd" fill="#006D9D" d="M137.7,98h285.4c3.7,0,6.7-3,6.7-6.7V70.8c0-3.7-3-6.7-6.7-6.7
		H137.7c-3.7,0-6.7,3-6.7,6.7v20.5C131,95,134,98,137.7,98z"/>
	<text transform="matrix(1 0 0 1 140.1598 89.7266)"><tspan x="0" y="0" fill="#FFFFFF" font-family="'TrebuchetMS-Bold'" font-size="23.525" letter-spacing="2">I</tspan><tspan x="8.7" y="0" fill="#FFFFFF" font-family="'TrebuchetMS-Bold'" font-size="23.525" letter-spacing="2">NDÚSTRI</tspan><tspan x="117.7" y="0" fill="#FFFFFF" font-family="'TrebuchetMS-Bold'" font-size="23.525">A</tspan><tspan x="132.6" y="0" fill="#FFFFFF" font-family="'TrebuchetMS-Bold'" font-size="23.525" letter-spacing="2"> </tspan><tspan x="141.8" y="0" fill="#FFFFFF" font-family="'TrebuchetMS-Bold'" font-size="23.525">E</tspan><tspan x="155.2" y="0" fill="#FFFFFF" font-family="'TrebuchetMS-Bold'" font-size="23.525" letter-spacing="2"> SERVIÇO</tspan><tspan x="271.1" y="0" fill="#FFFFFF" font-family="'TrebuchetMS-Bold'" font-size="23.525">S </tspan></text>
	<polygon fill-rule="evenodd" clip-rule="evenodd" points="58.5,3.9 71.1,3.9 121.4,93 30.3,92.9 36.2,82.7 103.9,82.9 	"/>
	<polygon fill-rule="evenodd" clip-rule="evenodd" fill="#5DA9DD" points="121.4,93 115,103.9 12.8,102.9 58.5,24.1 64.5,34.6 
		30.3,92.8 	"/>
	<polygon fill-rule="evenodd" clip-rule="evenodd" fill="#006D9D" points="12.8,102.9 6.5,92 58.5,3.9 104,82.9 91.8,82.9 
		58.5,24.1 	"/>
</g>
</svg>
